<svg width="35" height="35" viewBox="0 0 35 35" fill="none" xmlns="http://www.w3.org/2000/svg">
<rect width="35" height="35" fill="#3496C7"/>
<path d="M14.5836 20.4156C14.5836 21.0172 14.3446 21.5942 13.9192 22.0196C13.4937 22.4451 12.9167 22.6841 12.3151 22.6841M20.633 20.4156C20.633 21.0172 20.872 21.5942 21.2974 22.0196C21.7228 22.4451 22.2999 22.6841 22.9015 22.6841M17.6083 20.4156V23.4402M10.8027 13.61C10.8027 13.2089 10.9621 12.8242 11.2457 12.5406C11.5293 12.257 11.914 12.0977 12.3151 12.0977H22.9015C23.3026 12.0977 23.6873 12.257 23.9709 12.5406C24.2545 12.8242 24.4138 13.2089 24.4138 13.61V16.6347C24.4138 17.0358 24.2545 17.4205 23.9709 17.7041C23.6873 17.9877 23.3026 18.147 22.9015 18.147H12.3151C11.914 18.147 11.5293 17.9877 11.2457 17.7041C10.9621 17.4205 10.8027 17.0358 10.8027 16.6347V13.61Z" stroke="white" stroke-width="3.5" stroke-linecap="round" stroke-linejoin="round"/>
<path d="M13.8281 18.1477V15.8792C13.8281 15.6787 13.9078 15.4863 14.0496 15.3445C14.1914 15.2027 14.3837 15.123 14.5843 15.123H20.6337C20.8342 15.123 21.0266 15.2027 21.1684 15.3445C21.3102 15.4863 21.3899 15.6787 21.3899 15.8792V18.1477" stroke="white" stroke-width="3.5" stroke-linecap="round" stroke-linejoin="round"/>
</svg>
