<svg width="35" height="35" viewBox="0 0 35 35" fill="none" xmlns="http://www.w3.org/2000/svg">
<rect width="35" height="35" fill="#3496C7"/>
<path d="M15.3398 8.6416C14.0543 8.6416 13.0713 9.62463 13.0713 10.9101C13.0713 12.1956 14.0543 13.1786 15.3398 13.1786C16.3228 13.1786 17.1546 12.5737 17.4571 11.6663H19.1206V13.1786H20.633V11.6663H22.1453V10.1539H17.4571C17.1546 9.24654 16.3228 8.6416 15.3398 8.6416ZM15.3398 10.1539C15.7935 10.1539 16.0959 10.4564 16.0959 10.9101C16.0959 11.3638 15.7935 11.6663 15.3398 11.6663C14.8861 11.6663 14.5836 11.3638 14.5836 10.9101C14.5836 10.4564 14.8861 10.1539 15.3398 10.1539ZM13.4493 14.691C12.92 14.691 12.5419 14.9935 12.3907 15.4472L10.8027 19.9842V26.0336C10.8027 26.4873 11.1052 26.7897 11.5589 26.7897H12.3151C12.7688 26.7897 13.0713 26.4873 13.0713 26.0336V25.2774H22.1453V26.0336C22.1453 26.4873 22.4478 26.7897 22.9015 26.7897H23.6577C24.1114 26.7897 24.4138 26.4873 24.4138 26.0336V19.9842L22.8259 15.4472C22.6746 14.9935 22.2209 14.691 21.7672 14.691H13.4493ZM13.4493 15.8252H21.7672L22.9015 19.228H12.3151L13.4493 15.8252ZM13.4493 20.7404C14.0543 20.7404 14.5836 21.2697 14.5836 21.8746C14.5836 22.4796 14.0543 23.0089 13.4493 23.0089C12.8444 23.0089 12.3151 22.4796 12.3151 21.8746C12.3151 21.2697 12.8444 20.7404 13.4493 20.7404ZM21.7672 20.7404C22.3722 20.7404 22.9015 21.2697 22.9015 21.8746C22.9015 22.4796 22.3722 23.0089 21.7672 23.0089C21.1623 23.0089 20.633 22.4796 20.633 21.8746C20.633 21.2697 21.1623 20.7404 21.7672 20.7404Z" fill="white"/>
</svg>
