<svg width="35" height="35" viewBox="0 0 35 35" fill="none" xmlns="http://www.w3.org/2000/svg">
<rect width="35" height="35" fill="#3496C7"/>
<path d="M17.8366 8.6416C15.6274 8.6416 13.5087 9.51919 11.9466 11.0813C10.3844 12.6434 9.50684 14.7621 9.50684 16.9713C9.50684 19.1805 10.3844 21.2992 11.9466 22.8613C13.5087 24.4234 15.6274 25.301 17.8366 25.301C18.9304 25.301 20.0136 25.0856 21.0242 24.667C22.0348 24.2484 22.9531 23.6348 23.7266 22.8613C24.5 22.0878 25.1136 21.1696 25.5322 20.159C25.9508 19.1484 26.1663 18.0652 26.1663 16.9713C26.1663 15.8774 25.9508 14.7943 25.5322 13.7837C25.1136 12.7731 24.5 11.8548 23.7266 11.0813C22.9531 10.3078 22.0348 9.69427 21.0242 9.27566C20.0136 8.85706 18.9304 8.6416 17.8366 8.6416ZM17.8366 11.5481C20.8279 11.5481 23.2597 13.98 23.2597 16.9713C23.2597 19.9627 20.8279 22.3945 17.8366 22.3945C14.8452 22.3945 12.4134 19.9627 12.4134 16.9713C12.4134 13.98 14.8452 11.5481 17.8366 11.5481ZM17.8366 12.1862C17.1129 12.1862 16.4273 12.3464 15.813 12.6328C16.2223 13.7983 16.9227 15.2699 17.8366 15.2699C18.7519 15.2699 19.429 13.7936 19.8482 12.6273C19.2368 12.3443 18.5555 12.1862 17.8366 12.1862ZM21.3369 13.7061C20.3545 14.4555 19.1697 15.5772 19.4522 16.447C19.7351 17.3177 21.3489 17.5053 22.5877 17.5435C22.61 17.3559 22.6217 17.165 22.6217 16.9713C22.6217 15.708 22.1342 14.5606 21.3369 13.7061ZM14.3283 13.7147C13.5357 14.5682 13.0514 15.7122 13.0514 16.9713C13.0514 17.168 13.0634 17.3619 13.0864 17.5523C14.3211 17.523 15.9356 17.3115 16.2178 16.4428C16.5005 15.5729 15.3076 14.4737 14.3283 13.7147ZM16.8161 15.2616C16.7519 15.2634 16.6897 15.2846 16.6376 15.3224C16.5692 15.3721 16.5233 15.447 16.5101 15.5306C16.4969 15.6141 16.5174 15.6995 16.5671 15.7679C16.6168 15.8364 16.6917 15.8823 16.7753 15.8955C16.8588 15.9088 16.9442 15.8883 17.0127 15.8386C17.0466 15.814 17.0753 15.7829 17.0972 15.7472C17.1191 15.7115 17.1337 15.6718 17.1403 15.6304C17.1468 15.589 17.1452 15.5467 17.1354 15.506C17.1256 15.4653 17.1079 15.4269 17.0833 15.393C17.0528 15.351 17.0125 15.3171 16.9659 15.2942C16.9194 15.2713 16.868 15.2602 16.8161 15.2616ZM18.857 15.2616C18.8495 15.2614 18.8419 15.2615 18.8344 15.2618C18.7864 15.2638 18.7395 15.2767 18.6971 15.2994C18.6548 15.3221 18.6181 15.3541 18.5898 15.3929C18.5652 15.4268 18.5475 15.4652 18.5377 15.506C18.5279 15.5467 18.5263 15.589 18.5328 15.6304C18.5394 15.6718 18.554 15.7115 18.5759 15.7472C18.5978 15.7829 18.6265 15.814 18.6604 15.8386C18.7289 15.8883 18.8143 15.9088 18.8978 15.8955C18.9814 15.8823 19.0563 15.8364 19.106 15.768C19.1557 15.6995 19.1762 15.6141 19.163 15.5306C19.1498 15.447 19.1039 15.3722 19.0355 15.3224C18.9835 15.2846 18.9213 15.2635 18.857 15.2616ZM17.8366 15.8371C17.5357 15.8371 17.2472 15.9566 17.0345 16.1693C16.8218 16.382 16.7023 16.6705 16.7023 16.9713C16.7023 17.2721 16.8218 17.5606 17.0345 17.7734C17.2472 17.9861 17.5357 18.1056 17.8366 18.1056C18.1374 18.1056 18.4259 17.9861 18.6386 17.7734C18.8513 17.5606 18.9708 17.2721 18.9708 16.9713C18.9708 16.6705 18.8513 16.382 18.6386 16.1693C18.4259 15.9566 18.1374 15.8371 17.8366 15.8371ZM16.1955 17.1853C16.1636 17.1858 16.1319 17.191 16.1015 17.2009C16.0617 17.2138 16.0248 17.2345 15.9929 17.2617C15.961 17.2889 15.9348 17.3221 15.9158 17.3595C15.8968 17.3968 15.8853 17.4375 15.882 17.4793C15.8787 17.521 15.8837 17.563 15.8967 17.6029C15.9228 17.6833 15.9798 17.7501 16.0552 17.7885C16.1306 17.8269 16.2181 17.8338 16.2986 17.8077C16.3384 17.7948 16.3754 17.7741 16.4072 17.7469C16.4391 17.7197 16.4653 17.6865 16.4843 17.6491C16.5033 17.6118 16.5148 17.5711 16.5181 17.5294C16.5214 17.4876 16.5164 17.4456 16.5035 17.4057C16.4824 17.3409 16.4412 17.2845 16.3858 17.2449C16.3303 17.2052 16.2637 17.1843 16.1955 17.1853ZM19.4869 17.1856C19.4172 17.1826 19.3485 17.2024 19.2912 17.2422C19.2339 17.282 19.1912 17.3394 19.1696 17.4057C19.1567 17.4455 19.1517 17.4876 19.155 17.5293C19.1583 17.5711 19.1698 17.6118 19.1888 17.6491C19.2078 17.6864 19.234 17.7197 19.2659 17.7469C19.2978 17.7741 19.3347 17.7947 19.3745 17.8077C19.455 17.8338 19.5425 17.8269 19.6179 17.7885C19.6933 17.7501 19.7503 17.6833 19.7765 17.6029C19.7894 17.563 19.7944 17.521 19.7911 17.4793C19.7878 17.4375 19.7763 17.3968 19.7573 17.3595C19.7383 17.3221 19.7121 17.2889 19.6802 17.2617C19.6483 17.2345 19.6114 17.2138 19.5716 17.2009C19.5442 17.192 19.5157 17.1868 19.4869 17.1856ZM16.2208 18.1679C15.4555 18.1716 14.44 18.7645 13.6537 19.2996C14.3282 20.5107 15.5132 21.3967 16.9198 21.6687C17.2739 20.4851 17.5727 18.882 16.8331 18.3447C16.661 18.2197 16.4525 18.1668 16.2208 18.1679ZM19.4469 18.1686C19.2137 18.1686 19.0041 18.2223 18.8321 18.3473C18.0914 18.8854 18.4116 20.4778 18.7581 21.6678C20.1648 21.3943 21.3494 20.5066 22.0226 19.2939C21.2426 18.7543 20.2172 18.1686 19.4469 18.1686V18.1686ZM17.8366 18.3743C17.7519 18.3743 17.6708 18.4079 17.611 18.4677C17.5512 18.5275 17.5175 18.6087 17.5175 18.6933C17.5175 18.7779 17.5512 18.859 17.611 18.9188C17.6708 18.9787 17.7519 19.0123 17.8366 19.0123C17.9212 19.0123 18.0023 18.9787 18.0621 18.9188C18.122 18.859 18.1556 18.7779 18.1556 18.6933C18.1556 18.6087 18.122 18.5275 18.0621 18.4677C18.0023 18.4079 17.9212 18.3743 17.8366 18.3743Z" fill="white"/>
</svg>
