<svg width="35" height="35" viewBox="0 0 35 35" fill="none" xmlns="http://www.w3.org/2000/svg">
<rect width="35" height="35" fill="#3496C7"/>
<path d="M26.7897 17.6083C26.7897 20.1112 25.7765 22.3797 24.1431 24.0358L23.3265 23.2191C24.7632 21.7672 25.6555 19.8012 25.6555 17.6083C25.6555 15.423 24.7632 13.4493 23.3265 11.9975L24.1431 11.1808C25.7765 12.8368 26.7897 15.1054 26.7897 17.6083ZM23.7651 15.7935V14.5836H21.3453C20.6799 14.5836 20.1354 15.128 20.1354 15.7935V17.0034C20.1354 17.3242 20.2629 17.632 20.4898 17.8589C20.7167 18.0858 21.0244 18.2132 21.3453 18.2132H22.5552V19.4231H20.1354V20.633H22.5552C23.2206 20.633 23.7651 20.0885 23.7651 19.4231V18.2132C23.7651 17.8923 23.6376 17.5846 23.4107 17.3577C23.1838 17.1308 22.8761 17.0034 22.5552 17.0034H21.3453V15.7935H23.7651ZM15.0086 13.0713C15.8026 12.5949 16.7251 12.3151 17.7157 12.3151C18.7063 12.3151 19.6288 12.5949 20.4228 13.0713H22.7745C21.5343 11.6799 19.7271 10.8027 17.7157 10.8027C15.7043 10.8027 13.897 11.6799 12.6569 13.0713H15.0086ZM18.6231 17.6083C19.107 17.6083 19.5305 18.0317 19.5305 18.5157V19.4231C19.5305 19.582 19.4992 19.7393 19.4384 19.8861C19.3776 20.0329 19.2885 20.1663 19.1761 20.2786C19.0638 20.391 18.9304 20.4801 18.7836 20.5409C18.6368 20.6017 18.4795 20.633 18.3206 20.633H15.9009V14.5836H18.3206C18.6415 14.5836 18.9492 14.7111 19.1761 14.938C19.403 15.1649 19.5305 15.4726 19.5305 15.7935V16.7009C19.5305 17.1848 19.107 17.6083 18.6231 17.6083ZM18.3206 18.2132H17.1107V19.4231H18.3206V18.2132ZM18.3206 15.7935H17.1107V17.0034H18.3206V15.7935ZM12.1049 11.9975L11.2882 11.1808C9.65487 12.8368 8.6416 15.1054 8.6416 17.6083C8.6416 20.1112 9.65487 22.3797 11.2882 24.0358L12.1049 23.2191C10.6681 21.7672 9.77586 19.8012 9.77586 17.6083C9.77586 15.423 10.6681 13.4493 12.1049 11.9975ZM14.086 20.633V18.2132H12.8762V20.633H11.6663V15.7935C11.6663 15.4726 11.7938 15.1649 12.0207 14.938C12.2476 14.7111 12.5553 14.5836 12.8762 14.5836H14.086C14.7515 14.5836 15.2959 15.128 15.2959 15.7935V20.633H14.086ZM14.086 17.0034V15.7935H12.8762V17.0034H14.086ZM20.4228 22.1453C19.6288 22.6217 18.7063 22.9015 17.7157 22.9015C16.7613 22.9007 15.8252 22.6392 15.0086 22.1453H12.6569C13.897 23.5367 15.7043 24.4138 17.7157 24.4138C19.7271 24.4138 21.5343 23.5367 22.7745 22.1453H20.4228Z" fill="white"/>
</svg>
