<svg width="37" height="37" viewBox="0 0 37 37" fill="none" xmlns="http://www.w3.org/2000/svg">
<circle cx="18.375" cy="18.375" r="18.375" fill="#FF0000"/>
<path d="M26.8367 23.4617L21.3759 18.0009L26.8367 12.5402C26.9413 12.4342 27 12.2914 27 12.1425C27 11.9936 26.9413 11.8507 26.8367 11.7448L24.257 9.16516C24.2049 9.11281 24.1429 9.07127 24.0747 9.04293C24.0064 9.01459 23.9332 9 23.8593 9C23.7855 9 23.7123 9.01459 23.644 9.04293C23.5758 9.07127 23.5138 9.11281 23.4617 9.16516L18.0009 14.6259L12.5402 9.16516C12.4347 9.05971 12.2916 9.00047 12.1425 9.00047C11.9933 9.00047 11.8503 9.05971 11.7448 9.16516L9.16516 11.7448C9.11281 11.7969 9.07127 11.8589 9.04293 11.9272C9.01459 11.9954 9 12.0686 9 12.1425C9 12.2164 9.01459 12.2895 9.04293 12.3578C9.07127 12.426 9.11281 12.488 9.16516 12.5402L14.6259 18.0009L9.16516 23.4617C9.05971 23.5671 9.00047 23.7102 9.00047 23.8593C9.00047 24.0085 9.05971 24.1516 9.16516 24.257L11.7448 26.8367C11.7969 26.889 11.8589 26.9305 11.9272 26.9589C11.9954 26.9872 12.0686 27.0018 12.1425 27.0018C12.2164 27.0018 12.2895 26.9872 12.3578 26.9589C12.426 26.9305 12.488 26.889 12.5402 26.8367L18.0009 21.3759L23.4617 26.8367C23.5671 26.9421 23.7102 27.0014 23.8593 27.0014C24.0085 27.0014 24.1516 26.9421 24.257 26.8367L26.8367 24.257C26.889 24.2049 26.9305 24.1429 26.9589 24.0747C26.9872 24.0064 27.0018 23.9332 27.0018 23.8593C27.0018 23.7855 26.9872 23.7123 26.9589 23.644C26.9305 23.5758 26.889 23.5138 26.8367 23.4617Z" fill="#FFA3A3"/>
</svg>
