<svg width="100" height="100" viewBox="0 0 100 100" fill="none" xmlns="http://www.w3.org/2000/svg">
<circle cx="50" cy="50" r="50" fill="#3496C7"/>
<path d="M41.75 68.5V63C41.75 56.8125 36.8358 52 30.651 52H30.7995C24.612 52 19.75 56.8125 19.75 63V68.5M50 38.25H83M50 65.75H77.5M50 52H69.25M30.75 52C28.562 52 26.4635 51.1308 24.9164 49.5836C23.3692 48.0365 22.5 45.938 22.5 43.75C22.5 41.562 23.3692 39.4635 24.9164 37.9164C26.4635 36.3692 28.562 35.5 30.75 35.5C32.938 35.5 35.0365 36.3692 36.5836 37.9164C38.1308 39.4635 39 41.562 39 43.75C39 45.938 38.1308 48.0365 36.5836 49.5836C35.0365 51.1308 32.938 52 30.75 52Z" stroke="white" stroke-width="5.5"/>
</svg>
