<svg width="35" height="35" viewBox="0 0 35 35" fill="none" xmlns="http://www.w3.org/2000/svg">
<rect width="35" height="35" fill="#3496C7"/>
<path d="M15.0761 15.6633L17.2198 14.151H19.8604L19.0347 11.8825H17.0686V10.3701H20.0933L20.919 12.6386H23.8742V14.9072H21.7448L22.8458 17.9334C23.6812 17.9599 24.4776 18.293 25.0831 18.8691C25.6886 19.4452 26.061 20.224 26.1291 21.0571C26.1972 21.8901 25.9564 22.7191 25.4525 23.3859C24.9486 24.0527 24.2169 24.5108 23.3969 24.6727C22.5769 24.8347 21.726 24.6891 21.0065 24.2639C20.2869 23.8387 19.749 23.1635 19.4954 22.3671C19.2417 21.5707 19.29 20.7088 19.6311 19.9458C19.9722 19.1827 20.5822 18.5719 21.3448 18.2298L20.4101 15.6633H19.694L18.4978 20.1021L16.286 20.9104C16.3658 21.5473 16.2639 22.1938 15.9919 22.7752C15.72 23.3566 15.2892 23.8492 14.7492 24.1963C14.2092 24.5433 13.5821 24.7305 12.9403 24.7363C12.2985 24.742 11.6681 24.5662 11.1219 24.229C10.5758 23.8918 10.1361 23.4069 9.85378 22.8305C9.57142 22.2541 9.45784 21.6096 9.52617 20.9714C9.59451 20.3331 9.84195 19.7273 10.2399 19.2237C10.6379 18.7201 11.1702 18.3394 11.7754 18.1254V17.1757H10.2631V15.6633H15.0761ZM12.9097 23.2251C13.411 23.2251 13.8919 23.0259 14.2464 22.6714C14.6009 22.3168 14.8001 21.836 14.8001 21.3346C14.8001 20.8332 14.6009 20.3524 14.2464 19.9979C13.8919 19.6434 13.411 19.4442 12.9097 19.4442C12.4083 19.4442 11.9274 19.6434 11.5729 19.9979C11.2184 20.3524 11.0192 20.8332 11.0192 21.3346C11.0192 21.836 11.2184 22.3168 11.5729 22.6714C11.9274 23.0259 12.4083 23.2251 12.9097 23.2251ZM22.7399 23.2251C23.2413 23.2251 23.7221 23.0259 24.0766 22.6714C24.4312 22.3168 24.6303 21.836 24.6303 21.3346C24.6303 20.8332 24.4312 20.3524 24.0766 19.9979C23.7221 19.6434 23.2413 19.4442 22.7399 19.4442C22.2385 19.4442 21.7577 19.6434 21.4032 19.9979C21.0486 20.3524 20.8495 20.8332 20.8495 21.3346C20.8495 21.836 21.0486 22.3168 21.4032 22.6714C21.7577 23.0259 22.2385 23.2251 22.7399 23.2251Z" fill="white"/>
</svg>
