<svg width="100" height="100" viewBox="0 0 100 100" fill="none" xmlns="http://www.w3.org/2000/svg">
<circle cx="50" cy="50" r="50" fill="#3496C7"/>
<path d="M50 36.875C51.8234 36.875 53.572 37.5993 54.8614 38.8886C56.1507 40.178 56.875 41.9266 56.875 43.75C56.875 44.6528 56.6972 45.5468 56.3517 46.381C56.0062 47.2151 55.4998 47.973 54.8614 48.6114C54.223 49.2498 53.4651 49.7562 52.6309 50.1017C51.7968 50.4472 50.9028 50.625 50 50.625C48.1766 50.625 46.428 49.9007 45.1386 48.6114C43.8493 47.322 43.125 45.5734 43.125 43.75C43.125 41.9266 43.8493 40.178 45.1386 38.8886C46.428 37.5993 48.1766 36.875 50 36.875ZM50 24.5C55.1054 24.5 60.0017 26.5281 63.6118 30.1382C67.2219 33.7483 69.25 38.6446 69.25 43.75C69.25 58.1875 50 79.5 50 79.5C50 79.5 30.75 58.1875 30.75 43.75C30.75 38.6446 32.7781 33.7483 36.3882 30.1382C39.9983 26.5281 44.8946 24.5 50 24.5ZM50 30C46.3533 30 42.8559 31.4487 40.2773 34.0273C37.6987 36.6059 36.25 40.1033 36.25 43.75C36.25 46.5 36.25 52 50 70.4525C63.75 52 63.75 46.5 63.75 43.75C63.75 40.1033 62.3013 36.6059 59.7227 34.0273C57.1441 31.4487 53.6467 30 50 30Z" fill="white"/>
</svg>
