<svg width="100" height="100" viewBox="0 0 100 100" fill="none" xmlns="http://www.w3.org/2000/svg">
<circle cx="50" cy="50" r="50" fill="#3496C7"/>
<path d="M30.75 47.25L34.875 34.875H65.125L69.25 47.25M65.125 61C64.031 61 62.9818 60.5654 62.2082 59.7918C61.4346 59.0182 61 57.969 61 56.875C61 55.781 61.4346 54.7318 62.2082 53.9582C62.9818 53.1846 64.031 52.75 65.125 52.75C66.219 52.75 67.2682 53.1846 68.0418 53.9582C68.8154 54.7318 69.25 55.781 69.25 56.875C69.25 57.969 68.8154 59.0182 68.0418 59.7918C67.2682 60.5654 66.219 61 65.125 61ZM34.875 61C33.781 61 32.7318 60.5654 31.9582 59.7918C31.1846 59.0182 30.75 57.969 30.75 56.875C30.75 55.781 31.1846 54.7318 31.9582 53.9582C32.7318 53.1846 33.781 52.75 34.875 52.75C35.969 52.75 37.0182 53.1846 37.7918 53.9582C38.5654 54.7318 39 55.781 39 56.875C39 57.969 38.5654 59.0182 37.7918 59.7918C37.0182 60.5654 35.969 61 34.875 61ZM69.03 33.5C68.48 31.905 66.94 30.75 65.125 30.75H34.875C33.06 30.75 31.52 31.905 30.97 33.5L25.25 50V72C25.25 72.7293 25.5397 73.4288 26.0555 73.9445C26.5712 74.4603 27.2707 74.75 28 74.75H30.75C31.4793 74.75 32.1788 74.4603 32.6945 73.9445C33.2103 73.4288 33.5 72.7293 33.5 72V69.25H66.5V72C66.5 72.7293 66.7897 73.4288 67.3055 73.9445C67.8212 74.4603 68.5207 74.75 69.25 74.75H72C72.7293 74.75 73.4288 74.4603 73.9445 73.9445C74.4603 73.4288 74.75 72.7293 74.75 72V50L69.03 33.5Z" fill="white"/>
</svg>
