<svg width="35" height="35" viewBox="0 0 35 35" fill="none" xmlns="http://www.w3.org/2000/svg">
<rect width="35" height="35" fill="#3496C7"/>
<path d="M10.8027 13.3413V11.8289C10.8027 11.4773 10.8027 11.3019 10.8315 11.1559C10.8898 10.8624 11.0338 10.5928 11.2454 10.3812C11.457 10.1696 11.7267 10.0255 12.0202 9.96721C12.1661 9.93848 12.3415 9.93848 12.6932 9.93848C13.0448 9.93848 13.2202 9.93848 13.3662 9.96721C13.6597 10.0255 13.9293 10.1696 14.1409 10.3812C14.3525 10.5928 14.4966 10.8624 14.5549 11.1559C14.5836 11.3019 14.5836 11.4773 14.5836 11.8289V12.018H20.633V11.8289C20.633 11.4773 20.633 11.3019 20.6617 11.1559C20.72 10.8624 20.8641 10.5928 21.0757 10.3812C21.2873 10.1696 21.5569 10.0255 21.8504 9.96721C21.9964 9.93848 22.1718 9.93848 22.5234 9.93848C22.875 9.93848 23.0505 9.93848 23.1964 9.96721C23.4899 10.0255 23.7595 10.1696 23.9711 10.3812C24.1827 10.5928 24.3268 10.8624 24.3851 11.1559C24.4138 11.3019 24.4138 11.4773 24.4138 11.8289V13.3413C24.4138 13.6929 24.4138 13.8683 24.3851 14.0142C24.3268 14.3078 24.1827 14.5774 23.9711 14.789C23.7595 15.0006 23.4899 15.1446 23.1964 15.203C23.0505 15.2317 22.875 15.2317 22.5234 15.2317C22.1718 15.2317 21.9964 15.2317 21.8504 15.203C21.5569 15.1446 21.2873 15.0006 21.0757 14.789C20.8641 14.5774 20.72 14.3078 20.6617 14.0142C20.633 13.8683 20.633 13.6929 20.633 13.3413V13.1522H18.1754V21.8482H20.633V21.6592C20.633 21.3075 20.633 21.1321 20.6617 20.9862C20.72 20.6926 20.8641 20.423 21.0757 20.2114C21.2873 19.9998 21.5569 19.8558 21.8504 19.7975C21.9964 19.7687 22.1718 19.7687 22.5234 19.7687C22.875 19.7687 23.0505 19.7687 23.1964 19.7975C23.4899 19.8558 23.7595 19.9998 23.9711 20.2114C24.1827 20.423 24.3268 20.6926 24.3851 20.9862C24.4138 21.1321 24.4138 21.3075 24.4138 21.6592V23.1715C24.4138 23.5231 24.4138 23.6986 24.3851 23.8445C24.3268 24.138 24.1827 24.4076 23.9711 24.6192C23.7595 24.8308 23.4899 24.9749 23.1964 25.0332C23.0505 25.0619 22.875 25.0619 22.5234 25.0619C22.1718 25.0619 21.9964 25.0619 21.8504 25.0332C21.5569 24.9749 21.2873 24.8308 21.0757 24.6192C20.8641 24.4076 20.72 24.138 20.6617 23.8445C20.633 23.6986 20.633 23.5231 20.633 23.1715V22.9825H14.5836V23.1715C14.5836 23.5231 14.5836 23.6986 14.5549 23.8445C14.4966 24.138 14.3525 24.4076 14.1409 24.6192C13.9293 24.8308 13.6597 24.9749 13.3662 25.0332C13.2202 25.0619 13.0448 25.0619 12.6932 25.0619C12.3415 25.0619 12.1661 25.0619 12.0202 25.0332C11.7267 24.9749 11.457 24.8308 11.2454 24.6192C11.0338 24.4076 10.8898 24.138 10.8315 23.8445C10.8027 23.6986 10.8027 23.5231 10.8027 23.1715V21.6592C10.8027 21.3075 10.8027 21.1321 10.8315 20.9862C10.8898 20.6926 11.0338 20.423 11.2454 20.2114C11.457 19.9998 11.7267 19.8558 12.0202 19.7975C12.1661 19.7687 12.3415 19.7687 12.6932 19.7687C13.0448 19.7687 13.2202 19.7687 13.3662 19.7975C13.6597 19.8558 13.9293 19.9998 14.1409 20.2114C14.3525 20.423 14.4966 20.6926 14.5549 20.9862C14.5836 21.1321 14.5836 21.3075 14.5836 21.6592V21.8482H17.0412V13.1522H14.5836V13.3413C14.5836 13.6929 14.5836 13.8683 14.5549 14.0142C14.4966 14.3078 14.3525 14.5774 14.1409 14.789C13.9293 15.0006 13.6597 15.1446 13.3662 15.203C13.2202 15.2317 13.0448 15.2317 12.6932 15.2317C12.3415 15.2317 12.1661 15.2317 12.0202 15.203C11.7267 15.1446 11.457 15.0006 11.2454 14.789C11.0338 14.5774 10.8898 14.3078 10.8315 14.0142C10.8027 13.8683 10.8027 13.6929 10.8027 13.3413Z" fill="white"/>
</svg>
