<svg width="35" height="35" viewBox="0 0 35 35" fill="none" xmlns="http://www.w3.org/2000/svg">
<rect width="35" height="35" fill="#3496C7"/>
<path d="M22.8259 12.4232C22.6746 11.9695 22.2209 11.667 21.7672 11.667H13.4493C12.92 11.667 12.5419 11.9695 12.3907 12.4232L10.8027 16.9602V23.0096C10.8027 23.3877 11.1808 23.7658 11.5589 23.7658H12.3151C12.7688 23.7658 13.0713 23.3877 13.0713 23.0096V22.2534H22.1453V23.0096C22.1453 23.3877 22.5234 23.7658 22.9015 23.7658H23.6577C24.0358 23.7658 24.4138 23.3877 24.4138 23.0096V16.9602L22.8259 12.4232ZM13.6762 13.1793H21.4648L22.2966 15.4479H12.92L13.6762 13.1793ZM22.9015 20.7411H12.3151V16.9602H22.9015V20.7411ZM14.2055 17.7164C14.8105 17.7164 15.3398 18.2457 15.3398 18.8506C15.3398 19.4556 14.8105 19.9849 14.2055 19.9849C13.6006 19.9849 13.0713 19.4556 13.0713 18.8506C13.0713 18.2457 13.6006 17.7164 14.2055 17.7164ZM21.0111 17.7164C21.616 17.7164 22.1453 18.2457 22.1453 18.8506C22.1453 19.4556 21.616 19.9849 21.0111 19.9849C20.4061 19.9849 19.8768 19.4556 19.8768 18.8506C19.8768 18.2457 20.4061 17.7164 21.0111 17.7164Z" fill="white"/>
</svg>
