<svg width="35" height="35" viewBox="0 0 35 35" fill="none" xmlns="http://www.w3.org/2000/svg">
<rect width="35" height="35" fill="#3496C7"/>
<path d="M19.8498 14.3672C19.8498 14.2167 19.9096 14.0725 20.016 13.9661C20.1223 13.8598 20.2666 13.8 20.417 13.8H25.5211C25.6716 13.8 25.8158 13.8598 25.9222 13.9661C26.0285 14.0725 26.0883 14.2167 26.0883 14.3672C26.0883 14.5176 26.0285 14.6618 25.9222 14.7682C25.8158 14.8745 25.6716 14.9343 25.5211 14.9343H20.417C20.2666 14.9343 20.1223 14.8745 20.016 14.7682C19.9096 14.6618 19.8498 14.5176 19.8498 14.3672ZM25.5211 20.6056H20.417C20.2666 20.6056 20.1223 20.6653 20.016 20.7717C19.9096 20.878 19.8498 21.0223 19.8498 21.1727C19.8498 21.3231 19.9096 21.4674 20.016 21.5737C20.1223 21.6801 20.2666 21.7398 20.417 21.7398H25.5211C25.6716 21.7398 25.8158 21.6801 25.9222 21.5737C26.0285 21.4674 26.0883 21.3231 26.0883 21.1727C26.0883 21.0223 26.0285 20.878 25.9222 20.7717C25.8158 20.6653 25.6716 20.6056 25.5211 20.6056ZM25.5211 16.0685H20.417C20.2666 16.0685 20.1223 16.1283 20.016 16.2346C19.9096 16.341 19.8498 16.4853 19.8498 16.6357C19.8498 16.7861 19.9096 16.9303 20.016 17.0367C20.1223 17.143 20.2666 17.2028 20.417 17.2028H25.5211C25.6716 17.2028 25.8158 17.143 25.9222 17.0367C26.0285 16.9303 26.0883 16.7861 26.0883 16.6357C26.0883 16.4853 26.0285 16.341 25.9222 16.2346C25.8158 16.1283 25.6716 16.0685 25.5211 16.0685ZM25.5211 18.3371H20.417C20.2666 18.3371 20.1223 18.3968 20.016 18.5032C19.9096 18.6095 19.8498 18.7538 19.8498 18.9042C19.8498 19.0546 19.9096 19.1989 20.016 19.3052C20.1223 19.4116 20.2666 19.4713 20.417 19.4713H25.5211C25.6716 19.4713 25.8158 19.4116 25.9222 19.3052C26.0285 19.1989 26.0883 19.0546 26.0883 18.9042C26.0883 18.7538 26.0285 18.6095 25.9222 18.5032C25.8158 18.3968 25.6716 18.3371 25.5211 18.3371ZM18.7156 13.2329V22.307C18.7156 22.6078 18.5961 22.8963 18.3834 23.109C18.1707 23.3217 17.8822 23.4412 17.5813 23.4412H14.7457C13.9973 23.4412 13.2562 23.2931 12.5653 23.0054C11.8744 22.7177 11.2473 22.2961 10.7201 21.7649C10.1929 21.2337 9.77606 20.6034 9.49361 19.9103C9.21116 19.2172 9.06868 18.4751 9.07438 17.7267C9.09778 14.6238 11.6704 12.0986 14.8095 12.0986H17.5813C17.8822 12.0986 18.1707 12.2181 18.3834 12.4308C18.5961 12.6436 18.7156 12.9321 18.7156 13.2329ZM17.5813 13.2329H14.8095C12.2914 13.2329 10.2271 15.2526 10.2086 17.7352C10.2041 18.3339 10.318 18.9276 10.544 19.4821C10.7699 20.0366 11.1034 20.5409 11.5252 20.9658C11.9469 21.3908 12.4486 21.7281 13.0014 21.9583C13.5541 22.1885 14.1469 22.307 14.7457 22.307H17.5813V13.2329Z" fill="white"/>
</svg>
