<svg width="35" height="35" viewBox="0 0 35 35" fill="none" xmlns="http://www.w3.org/2000/svg">
<rect width="35" height="35" fill="#3496C7"/>
<path d="M10.3711 11.4501C10.3712 11.1757 10.446 10.9066 10.5874 10.6714C10.7288 10.4363 10.9315 10.2441 11.1738 10.1153C11.4161 9.98657 11.6888 9.92616 11.9628 9.94056C12.2368 9.95496 12.5017 10.0436 12.7292 10.1971C12.9566 10.3505 13.1381 10.5629 13.254 10.8116C13.37 11.0602 13.4162 11.3357 13.3875 11.6086C13.3589 11.8815 13.2566 12.1414 13.0915 12.3606C12.9265 12.5798 12.7049 12.7499 12.4506 12.8528V16.9324H17.3657V12.8528C17.0403 12.7212 16.7709 12.4805 16.6035 12.172C16.4362 11.8635 16.3813 11.5064 16.4483 11.1619C16.5154 10.8174 16.7001 10.507 16.971 10.2838C17.2418 10.0605 17.5819 9.93848 17.9328 9.93848C18.2838 9.93848 18.6238 10.0605 18.8947 10.2838C19.1655 10.507 19.3503 10.8174 19.4173 11.1619C19.4844 11.5064 19.4295 11.8635 19.2621 12.172C19.0948 12.4805 18.8253 12.7212 18.5 12.8528V16.9324H20.9575C21.6865 16.9324 22.1765 16.9308 22.5417 16.8824C22.8903 16.8348 23.04 16.7539 23.1383 16.6556C23.2366 16.5573 23.3175 16.4076 23.3652 16.0582C23.4136 15.6937 23.4151 15.2037 23.4151 14.4748V12.8528C23.0897 12.7212 22.8203 12.4805 22.6529 12.172C22.4855 11.8635 22.4307 11.5064 22.4977 11.1619C22.5648 10.8174 22.7495 10.507 23.0204 10.2838C23.2912 10.0605 23.6312 9.93848 23.9822 9.93848C24.3332 9.93848 24.6732 10.0605 24.9441 10.2838C25.2149 10.507 25.3997 10.8174 25.4667 11.1619C25.5337 11.5064 25.4789 11.8635 25.3115 12.172C25.1441 12.4805 24.8747 12.7212 24.5493 12.8528V14.5141C24.5493 15.1932 24.5493 15.7603 24.4888 16.2095C24.4253 16.6843 24.2847 17.1131 23.9399 17.4571C23.5958 17.802 23.1671 17.9426 22.6922 18.0061C22.243 18.0666 21.6766 18.0666 20.9968 18.0666H18.5V22.1462C18.8253 22.2778 19.0948 22.5185 19.2621 22.8269C19.4295 23.1354 19.4844 23.4925 19.4173 23.837C19.3503 24.1815 19.1655 24.492 18.8947 24.7152C18.6238 24.9384 18.2838 25.0605 17.9328 25.0605C17.5819 25.0605 17.2418 24.9384 16.971 24.7152C16.7001 24.492 16.5154 24.1815 16.4483 23.837C16.3813 23.4925 16.4362 23.1354 16.6035 22.8269C16.7709 22.5185 17.0403 22.2778 17.3657 22.1462V18.0666H12.4506V22.1462C12.7759 22.2778 13.0454 22.5185 13.2127 22.8269C13.3801 23.1354 13.435 23.4925 13.3679 23.837C13.3009 24.1815 13.1161 24.492 12.8453 24.7152C12.5744 24.9384 12.2344 25.0605 11.8834 25.0605C11.5325 25.0605 11.1924 24.9384 10.9216 24.7152C10.6508 24.492 10.466 24.1815 10.3989 23.837C10.3319 23.4925 10.3868 23.1354 10.5541 22.8269C10.7215 22.5185 10.991 22.2778 11.3163 22.1462V12.8528C11.0369 12.7398 10.7977 12.5459 10.6293 12.296C10.4609 12.046 10.371 11.7515 10.3711 11.4501Z" fill="white"/>
<path fill-rule="evenodd" clip-rule="evenodd" d="M21.9033 19.7683C21.9033 19.6179 21.9631 19.4736 22.0694 19.3673C22.1758 19.2609 22.32 19.2012 22.4704 19.2012H24.1991C25.2388 19.2012 26.0623 20.0587 26.0623 21.0916C26.0636 21.4803 25.9453 21.8599 25.7232 22.179C25.5012 22.498 25.1863 22.7409 24.8214 22.8747L25.9783 24.7651C26.0173 24.8286 26.0433 24.8991 26.055 24.9727C26.0666 25.0463 26.0637 25.1214 26.0463 25.1938C26.0289 25.2663 25.9974 25.3346 25.9537 25.3948C25.9099 25.4551 25.8547 25.5062 25.7912 25.5451C25.7277 25.584 25.6571 25.61 25.5836 25.6217C25.51 25.6334 25.4349 25.6304 25.3624 25.613C25.29 25.5957 25.2217 25.5642 25.1614 25.5204C25.1012 25.4766 25.0501 25.4214 25.0112 25.3579L23.5571 22.982H23.0376V25.0615C23.0376 25.2119 22.9778 25.3562 22.8715 25.4625C22.7651 25.5689 22.6209 25.6286 22.4704 25.6286C22.32 25.6286 22.1758 25.5689 22.0694 25.4625C21.9631 25.3562 21.9033 25.2119 21.9033 25.0615V19.7683ZM23.0376 21.8478H24.1991C24.5908 21.8478 24.928 21.5204 24.928 21.0916C24.928 20.6629 24.5908 20.3354 24.1991 20.3354H23.0376V21.8478Z" fill="white"/>
</svg>
