<svg width="35" height="35" viewBox="0 0 35 35" fill="none" xmlns="http://www.w3.org/2000/svg">
<rect width="35" height="35" fill="#3496C7"/>
<path d="M25.7371 19.4449C25.4239 20.9745 24.6453 22.3698 23.508 23.4396C22.3707 24.5093 20.9304 25.2011 19.3845 25.4202V23.889C20.5262 23.6854 21.5854 23.1583 22.4363 22.3704C23.2872 21.5825 23.8941 20.5669 24.1847 19.4442L25.7371 19.4449ZM12.4678 19.4449C12.7552 20.5548 13.3517 21.5603 14.1879 22.3445C15.0241 23.1288 16.0657 23.6596 17.1916 23.8754V25.4089C15.6611 25.1759 14.2389 24.4793 13.1166 23.4129C11.9944 22.3464 11.2261 20.9616 10.9154 19.4449H12.4678ZM22.8629 17.1757V18.688H22.1068C21.3307 18.688 20.5844 18.9863 20.0221 19.5211C19.4599 20.0559 19.1247 20.7864 19.0859 21.5615L19.0828 21.7127V22.4689H17.5705V21.7127C17.5705 20.9367 17.2722 20.1904 16.7374 19.6281C16.2026 19.0658 15.4721 18.7306 14.697 18.6918L14.5458 18.688H13.7896V17.1757H22.8629ZM18.3259 10.3701C22.2474 10.3701 25.4717 13.3547 25.8506 17.1757H24.3292C24.146 15.7127 23.4348 14.367 22.3294 13.3913C21.224 12.4157 19.8003 11.8773 18.3259 11.8773C16.8515 11.8773 15.4278 12.4157 14.3224 13.3913C13.217 14.367 12.5058 15.7127 12.3226 17.1757H10.8027C11.1823 13.3547 14.4059 10.3701 18.3267 10.3701H18.3259Z" fill="white"/>
</svg>
