<svg width="31" height="26" viewBox="0 0 31 26" fill="none" xmlns="http://www.w3.org/2000/svg">
<g clip-path="url(#clip0_107_347)">
<path d="M30.7465 12.987C30.7465 5.8175 23.9055 0 15.4765 0C7.04748 0 0.206543 5.8175 0.206543 12.987C0.206543 16.9358 2.3138 20.4945 5.61211 22.8832C5.64265 22.9092 5.67319 22.9093 5.67319 22.9353C5.94805 23.1173 6.22291 23.2992 6.52831 23.4812C6.68101 23.5592 6.80317 23.6616 6.95586 23.7656C9.47935 25.2222 12.4582 26.0006 15.507 26C18.5559 26.0006 21.5347 25.2222 24.0582 23.7656C24.2109 23.6876 24.3331 23.5853 24.4858 23.5056C24.7606 23.3253 25.066 23.1433 25.3409 22.9613C25.3714 22.9353 25.402 22.9352 25.402 22.9092C28.6392 20.4929 30.7465 16.9358 30.7465 12.987ZM15.4765 24.3636C12.6057 24.3636 9.97932 23.5836 7.81098 22.2852C7.84152 22.0772 7.9026 21.8709 7.96368 21.6629C8.14566 21.0992 8.41255 20.5579 8.75772 20.0525C9.09366 19.5585 9.49068 19.1165 9.97932 18.7265C10.4374 18.3365 10.9871 17.9741 11.5369 17.6881C12.1171 17.4021 12.7279 17.1941 13.3998 17.0381C14.0769 16.8827 14.7752 16.8046 15.4765 16.8058C17.5583 16.7932 19.5636 17.473 21.0653 18.7005C21.7677 19.2985 22.3174 20.0005 22.7145 20.8049C22.9282 21.2729 23.0809 21.7669 23.1726 22.2852C20.9187 23.6343 18.2316 24.3599 15.4765 24.3636ZM10.8039 12.3386C10.5348 11.8141 10.3995 11.247 10.4069 10.6746C10.4069 10.1042 10.529 9.53225 10.8039 9.01225C11.0788 8.49225 11.4452 8.02587 11.9033 7.63587C12.3614 7.24587 12.9111 6.9355 13.5219 6.7015C14.1327 6.4675 14.8046 6.3635 15.4765 6.3635C16.1789 6.3635 16.8203 6.4675 17.4311 6.7015C18.0419 6.9355 18.5916 7.2475 19.0497 7.63587C19.5078 8.02587 19.8742 8.49387 20.1491 9.01225C20.424 9.53225 20.5461 10.1042 20.5461 10.6746C20.5461 11.2726 20.424 11.8186 20.1491 12.337C19.8838 12.8493 19.5113 13.3162 19.0497 13.715C18.5811 14.1074 18.0327 14.424 17.4311 14.6494C16.169 15.0909 14.7534 15.0909 13.4914 14.6494C12.8898 14.424 12.3413 14.1074 11.8728 13.715C11.4105 13.3221 11.0469 12.8549 10.8039 12.3386ZM24.9744 20.9609C24.9744 20.9089 24.9439 20.8829 24.9439 20.8309C24.6435 20.0174 24.2008 19.2472 23.6307 18.5461C23.06 17.8399 22.3587 17.217 21.5539 16.7017C20.9394 16.3081 20.2732 15.9766 19.5689 15.7138C19.8893 15.5338 20.1862 15.3251 20.4545 15.0914C20.9098 14.7087 21.3097 14.281 21.6456 13.8174C22.3219 12.8713 22.6713 11.782 22.6534 10.6746C22.6628 9.85484 22.4758 9.04202 22.1037 8.28587C21.7363 7.55729 21.2075 6.89578 20.5461 6.3375C19.8858 5.78505 19.1086 5.34396 18.2556 5.0375C17.366 4.72126 16.41 4.56258 15.446 4.57112C14.4818 4.5631 13.5258 4.72233 12.6363 5.03913C11.7759 5.34493 10.9969 5.79538 10.3458 6.3635C9.6969 6.92508 9.17878 7.58618 8.8188 8.31187C8.44669 9.06802 8.25964 9.88084 8.26908 10.7006C8.26908 11.2726 8.3607 11.8186 8.54394 12.337C8.72718 12.883 8.9715 13.377 9.30744 13.8434C9.61284 14.3114 10.0404 14.7274 10.4985 15.1174C10.7734 15.3514 11.0788 15.5577 11.4147 15.7397C10.7081 16.0096 10.0418 16.35 9.4296 16.7538C8.63556 17.2738 7.93314 17.8961 7.35288 18.5721C6.77694 19.2703 6.33377 20.0413 6.03967 20.8569C6.00913 20.9089 6.00913 20.9609 6.00913 20.9869C3.59647 18.9085 2.10002 16.1038 2.10002 12.987C2.10002 6.7275 8.11638 1.61037 15.4765 1.61037C22.8366 1.61037 28.853 6.7275 28.853 12.987C28.849 15.9769 27.4545 18.8439 24.9744 20.9609Z" fill="#5F6165"/>
</g>
<defs>
<clipPath id="clip0_107_347">
<rect width="30.5399" height="26" fill="white" transform="translate(0.206543)"/>
</clipPath>
</defs>
</svg>
