<svg width="62" height="52" viewBox="0 0 62 52" fill="none" xmlns="http://www.w3.org/2000/svg">
<path d="M61.08 25.974C61.08 11.635 47.3981 0 30.54 0C13.6819 0 0 11.635 0 25.974C0 33.8715 4.21452 40.989 10.8112 45.7665C10.8722 45.8185 10.9333 45.8185 10.9333 45.8705C11.483 46.2345 12.0328 46.5985 12.6436 46.9625C12.949 47.1185 13.1933 47.3232 13.4987 47.5312C18.5457 50.4444 24.5034 52.0012 30.6011 52C36.6987 52.0012 42.6565 50.4444 47.7035 47.5312C48.0089 47.3753 48.2532 47.1705 48.5586 47.0112C49.1083 46.6505 49.7191 46.2865 50.2688 45.9225C50.3299 45.8705 50.391 45.8705 50.391 45.8185C56.8655 40.9857 61.08 33.8715 61.08 25.974ZM30.54 48.7272C24.7985 48.7272 19.5456 47.1672 15.2089 44.5705C15.27 44.1545 15.3922 43.7418 15.5143 43.3258C15.8783 42.1983 16.4121 41.1158 17.1024 40.105C17.7743 39.117 18.5683 38.233 19.5456 37.453C20.4618 36.673 21.5612 35.9482 22.6607 35.3763C23.8212 34.8043 25.0428 34.3882 26.3866 34.0762C27.7408 33.7655 29.1375 33.6092 30.54 33.6115C34.7036 33.5864 38.7141 34.9461 41.7176 37.401C43.1225 38.597 44.2219 40.001 45.016 41.6098C45.4435 42.5457 45.7489 43.5337 45.9322 44.5705C41.4244 47.2685 36.0503 48.7198 30.54 48.7272ZM21.1948 24.6772C20.6566 23.6282 20.3859 22.4939 20.4007 21.3492C20.4007 20.2085 20.645 19.0645 21.1948 18.0245C21.7445 16.9845 22.4774 16.0518 23.3936 15.2717C24.3098 14.4917 25.4093 13.871 26.6309 13.403C27.8525 12.935 29.1962 12.727 30.54 12.727C31.9448 12.727 33.2275 12.935 34.4491 13.403C35.6707 13.871 36.7702 14.495 37.6864 15.2717C38.6026 16.0518 39.3355 16.9877 39.8852 18.0245C40.435 19.0645 40.6793 20.2085 40.6793 21.3492C40.6793 22.5452 40.435 23.6373 39.8852 24.674C39.3547 25.6986 38.6096 26.6325 37.6864 27.43C36.7493 28.2148 35.6524 28.8481 34.4491 29.2988C31.9251 30.1818 29.0938 30.1818 26.5698 29.2988C25.3666 28.8481 24.2696 28.2148 23.3326 27.43C22.408 26.6441 21.6807 25.7097 21.1948 24.6772ZM49.5359 41.9217C49.5359 41.8177 49.4748 41.7658 49.4748 41.6618C48.8741 40.0349 47.9886 38.4944 46.8484 37.0923C45.707 35.6797 44.3044 34.434 42.6949 33.4035C41.4658 32.6163 40.1335 31.9532 38.7247 31.4275C39.3656 31.0675 39.9594 30.6503 40.496 30.1827C41.4067 29.4174 42.2064 28.562 42.8782 27.6348C44.2309 25.7426 44.9295 23.5641 44.8938 21.3492C44.9127 19.7097 44.5386 18.084 43.7944 16.5718C43.0596 15.1146 42.0019 13.7916 40.6793 12.675C39.3586 11.5701 37.8042 10.6879 36.0983 10.075C34.319 9.44253 32.407 9.12516 30.4789 9.14225C28.5506 9.12619 26.6386 9.44467 24.8596 10.0782C23.1388 10.6899 21.5807 11.5908 20.2786 12.727C18.9808 13.8502 17.9445 15.1724 17.2246 16.6237C16.4803 18.136 16.1062 19.7617 16.1251 21.4013C16.1251 22.5452 16.3084 23.6373 16.6748 24.674C17.0413 25.766 17.53 26.754 18.2018 27.6868C18.8126 28.6227 19.6678 29.4548 20.584 30.2348C21.1337 30.7028 21.7445 31.1155 22.4164 31.4795C21.0033 32.0192 19.6705 32.7 18.4462 33.5075C16.8581 34.5475 15.4532 35.7922 14.2927 37.1442C13.1408 38.5406 12.2545 40.0826 11.6663 41.7137C11.6052 41.8177 11.6052 41.9217 11.6052 41.9738C6.77988 37.817 3.78696 32.2075 3.78696 25.974C3.78696 13.455 15.8197 3.22075 30.54 3.22075C45.2603 3.22075 57.293 13.455 57.293 25.974C57.285 31.9539 54.496 37.6877 49.5359 41.9217Z" fill="#5F6165"/>
</svg>
