<svg width="46" height="50" viewBox="0 0 46 50" fill="none" xmlns="http://www.w3.org/2000/svg">
<path d="M37.3098 1H8.1898C6.1878 1 4.5498 2.8 4.5498 5V45C4.5498 47.2 6.1878 49 8.1898 49H37.3098C39.3118 49 40.9498 47.2 40.9498 45V5C40.9498 2.8 39.3118 1 37.3098 1ZM15.4698 41C15.4698 42.1 14.6508 43 13.6498 43H10.0098C9.0088 43 8.1898 42.1 8.1898 41V40C8.1898 38.9 9.0088 38 10.0098 38H13.6498C14.6508 38 15.4698 38.9 15.4698 40V41ZM15.4698 33C15.4698 34.1 14.6508 35 13.6498 35H10.0098C9.0088 35 8.1898 34.1 8.1898 33V32C8.1898 30.9 9.0088 30 10.0098 30H13.6498C14.6508 30 15.4698 30.9 15.4698 32V33ZM15.4698 25C15.4698 26.1 14.6508 27 13.6498 27H10.0098C9.0088 27 8.1898 26.1 8.1898 25V24C8.1898 22.9 9.0088 22 10.0098 22H13.6498C14.6508 22 15.4698 22.9 15.4698 24V25ZM26.3898 41C26.3898 42.1 25.5708 43 24.5698 43H20.9298C19.9288 43 19.1098 42.1 19.1098 41V40C19.1098 38.9 19.9288 38 20.9298 38H24.5698C25.5708 38 26.3898 38.9 26.3898 40V41ZM26.3898 33C26.3898 34.1 25.5708 35 24.5698 35H20.9298C19.9288 35 19.1098 34.1 19.1098 33V32C19.1098 30.9 19.9288 30 20.9298 30H24.5698C25.5708 30 26.3898 30.9 26.3898 32V33ZM26.3898 25C26.3898 26.1 25.5708 27 24.5698 27H20.9298C19.9288 27 19.1098 26.1 19.1098 25V24C19.1098 22.9 19.9288 22 20.9298 22H24.5698C25.5708 22 26.3898 22.9 26.3898 24V25ZM37.3098 41C37.3098 42.1 36.4908 43 35.4898 43H31.8498C30.8488 43 30.0298 42.1 30.0298 41V40C30.0298 38.9 30.8488 38 31.8498 38H35.4898C36.4908 38 37.3098 38.9 37.3098 40V41ZM37.3098 33C37.3098 34.1 36.4908 35 35.4898 35H31.8498C30.8488 35 30.0298 34.1 30.0298 33V32C30.0298 30.9 30.8488 30 31.8498 30H35.4898C36.4908 30 37.3098 30.9 37.3098 32V33ZM37.3098 25C37.3098 26.1 36.4908 27 35.4898 27H31.8498C30.8488 27 30.0298 26.1 30.0298 25V24C30.0298 22.9 30.8488 22 31.8498 22H35.4898C36.4908 22 37.3098 22.9 37.3098 24V25ZM37.3098 16C37.3098 17.1 36.4908 18 35.4898 18H10.0098C9.0088 18 8.1898 17.1 8.1898 16V8C8.1898 6.9 9.0088 6 10.0098 6H35.4898C36.4908 6 37.3098 6.9 37.3098 8V16Z" fill="#5F6165"/>
</svg>
