<svg width="31" height="26" viewBox="0 0 31 26" fill="none" xmlns="http://www.w3.org/2000/svg">
<path d="M25.0201 24.375H23.1113V20.3125C23.1098 19.2355 22.6066 18.2029 21.712 17.4413C20.8174 16.6797 19.6046 16.2513 18.3395 16.25H12.6132C11.3481 16.2513 10.1353 16.6797 9.24068 17.4413C8.34611 18.2029 7.84288 19.2355 7.84136 20.3125V24.375H5.93262V20.3125C5.93464 18.8046 6.63913 17.359 7.89155 16.2927C9.14397 15.2265 10.842 14.6267 12.6132 14.625H18.3395C20.1106 14.6267 21.8087 15.2265 23.0611 16.2927C24.3135 17.359 25.018 18.8046 25.0201 20.3125V24.375ZM21.2026 4.875V8.125C21.2026 9.02119 20.3465 9.75 19.2938 9.75H18.3395C18.0863 9.75 17.8436 9.8356 17.6646 9.98798C17.4856 10.1403 17.3851 10.347 17.3851 10.5625C17.3851 10.778 17.4856 10.9847 17.6646 11.137C17.8436 11.2894 18.0863 11.375 18.3395 11.375H19.2938C21.3992 11.375 23.1113 9.91738 23.1113 8.125V4.875H21.2026ZM15.4763 13C11.7925 13 8.79573 10.4487 8.79573 7.3125C8.79573 4.17625 11.7925 1.625 15.4763 1.625C17.3736 1.625 19.1888 2.31563 20.4553 3.52056L19.0333 4.60444C18.5854 4.17866 18.0372 3.83798 17.4243 3.60461C16.8114 3.37125 16.1477 3.25042 15.4763 3.25C12.8451 3.25 10.7045 5.07244 10.7045 7.3125C10.7045 9.55256 12.8451 11.375 15.4763 11.375V13Z" fill="#5F6165"/>
</svg>
