<svg width="39" height="46" viewBox="0 0 39 46" fill="none" xmlns="http://www.w3.org/2000/svg">
<path d="M38.175 45.5H34.3575V37.375C34.3545 35.2209 33.348 33.1558 31.5589 31.6326C29.7697 30.1094 27.344 29.2526 24.8137 29.25H13.3612C10.831 29.2526 8.40529 30.1094 6.61615 31.6326C4.827 33.1558 3.82053 35.2209 3.8175 37.375V45.5H0V37.375C0.00404151 34.3592 1.41304 31.4679 3.91788 29.3355C6.42273 27.203 9.81887 26.0034 13.3612 26H24.8137C28.3561 26.0034 31.7523 27.203 34.2571 29.3355C36.762 31.4679 38.171 34.3592 38.175 37.375V45.5ZM30.54 6.5V13C30.54 14.7924 28.8279 16.25 26.7225 16.25H24.8137C24.3075 16.25 23.822 16.4212 23.4641 16.726C23.1061 17.0307 22.905 17.444 22.905 17.875C22.905 18.306 23.1061 18.7193 23.4641 19.024C23.822 19.3288 24.3075 19.5 24.8137 19.5H26.7225C30.9332 19.5 34.3575 16.5847 34.3575 13V6.5H30.54ZM19.0875 22.75C11.7197 22.75 5.72625 17.6475 5.72625 11.375C5.72625 5.1025 11.7197 0 19.0875 0C22.8821 0 26.5125 1.38125 29.0454 3.79113L26.2014 5.95887C25.3056 5.10731 24.2092 4.42597 22.9834 3.95923C21.7577 3.49249 20.4302 3.25083 19.0875 3.25C13.8251 3.25 9.54375 6.89488 9.54375 11.375C9.54375 15.8551 13.8251 19.5 19.0875 19.5V22.75Z" fill="#5F6165"/>
</svg>
