<svg width="27" height="24" viewBox="0 0 27 24" fill="none" xmlns="http://www.w3.org/2000/svg">
<path d="M10.2554 10.6142H1.66833C0.889563 10.6142 0.255859 10.0741 0.255859 9.40913V2.09923C0.255859 1.43623 0.889563 0.896729 1.66833 0.896729H10.2554C11.0342 0.896729 11.6679 1.43623 11.6679 2.09923V9.40978C11.6679 10.0741 11.0342 10.6142 10.2554 10.6142ZM1.66833 1.47263C1.47326 1.4728 1.28625 1.53889 1.14838 1.65638C1.01052 1.77388 0.933082 1.93316 0.933082 2.09923V9.40978C0.933082 9.75623 1.26291 10.0383 1.66833 10.0383H10.2554C10.4507 10.0378 10.6379 9.97134 10.7757 9.8535C10.9135 9.73566 10.9908 9.57608 10.9906 9.40978V2.09923C10.9906 1.93316 10.9132 1.77388 10.7753 1.65638C10.6375 1.53889 10.4505 1.4728 10.2554 1.47263H1.66833ZM25.2871 10.6142H16.6978C16.323 10.6135 15.9638 10.4862 15.6991 10.2603C15.4344 10.0344 15.2859 9.72823 15.2861 9.40913V2.09923C15.2861 1.43623 15.919 0.896729 16.6978 0.896729H25.2871C25.6614 0.897245 26.02 1.02416 26.2844 1.24962C26.5488 1.47508 26.6973 1.78064 26.6973 2.09923V9.40978C26.6973 9.72854 26.5489 10.0343 26.2846 10.2601C26.0202 10.4858 25.6616 10.6132 25.2871 10.6142ZM16.6978 1.47263C16.5027 1.4728 16.3157 1.53889 16.1778 1.65638C16.04 1.77388 15.9625 1.93316 15.9625 2.09923V9.40978C15.9625 9.75623 16.2924 10.0383 16.6978 10.0383H25.2871C25.6842 10.0383 26.0201 9.75038 26.0201 9.40978V2.09923C26.0203 2.01711 26.0015 1.93577 25.9648 1.85984C25.928 1.78391 25.8741 1.71488 25.8061 1.65669C25.738 1.59851 25.6571 1.55231 25.5681 1.52072C25.4791 1.48914 25.3836 1.4728 25.2871 1.47263H16.6978ZM10.2554 23.104H1.66833C0.889563 23.104 0.255859 22.5645 0.255859 21.9015V14.589C0.255859 13.9253 0.889563 13.3858 1.66833 13.3858H10.2554C11.0342 13.3858 11.6679 13.9253 11.6679 14.589V21.9008C11.6679 22.5638 11.0342 23.104 10.2554 23.104ZM1.66833 13.9624C1.47332 13.9627 1.28643 14.0289 1.14861 14.1463C1.01079 14.2638 0.933284 14.423 0.933082 14.589V21.9008C0.933082 22.2466 1.26291 22.5274 1.66833 22.5274H10.2554C10.4505 22.5273 10.6375 22.4612 10.7753 22.3437C10.9132 22.2262 10.9906 22.0669 10.9906 21.9008V14.589C10.9906 14.4229 10.9132 14.2636 10.7753 14.1461C10.6375 14.0286 10.4505 13.9625 10.2554 13.9624H1.66833ZM25.2871 23.104H16.6978C15.919 23.104 15.2861 22.5645 15.2861 21.9015V14.589C15.2861 13.9253 15.919 13.3858 16.6978 13.3858H25.2871C26.0644 13.3858 26.6973 13.9253 26.6973 14.589V21.9008C26.6971 22.2194 26.5486 22.525 26.2843 22.7505C26.0199 22.976 25.6614 23.1031 25.2871 23.104ZM16.6978 13.9624C16.5028 13.9627 16.3159 14.0289 16.1781 14.1463C16.0402 14.2638 15.9627 14.423 15.9625 14.589V21.9008C15.9625 22.2466 16.2924 22.5274 16.6978 22.5274H25.2871C25.6918 22.5274 26.0201 22.2466 26.0201 21.9008V14.589C26.0203 14.5069 26.0015 14.4255 25.9648 14.3496C25.928 14.2737 25.8741 14.2046 25.8061 14.1464C25.738 14.0883 25.6571 14.0421 25.5681 14.0105C25.4791 13.9789 25.3836 13.9625 25.2871 13.9624H16.6978Z" fill="#5F6165"/>
</svg>
