<svg width="53" height="45" viewBox="0 0 53 45" fill="none" xmlns="http://www.w3.org/2000/svg">
<path d="M19.9991 19.435H2.82495C1.26741 19.435 0 18.3547 0 17.0248V2.405C0 1.079 1.26741 0 2.82495 0H19.9991C21.5567 0 22.8241 1.079 22.8241 2.405V17.0261C22.8241 18.3547 21.5567 19.435 19.9991 19.435ZM2.82495 1.1518C2.43481 1.15214 2.06078 1.28433 1.78506 1.51931C1.50933 1.7543 1.35445 2.07286 1.35445 2.405V17.0261C1.35445 17.719 2.01411 18.2832 2.82495 18.2832H19.9991C20.3898 18.2822 20.7641 18.1492 21.0397 17.9135C21.3154 17.6779 21.47 17.3587 21.4696 17.0261V2.405C21.4696 2.07286 21.3147 1.7543 21.039 1.51931C20.7633 1.28433 20.3893 1.15214 19.9991 1.1518H2.82495ZM50.0627 19.435H32.8839C32.1343 19.4336 31.4159 19.179 30.8866 18.7272C30.3572 18.2753 30.0601 17.663 30.0605 17.0248V2.405C30.0605 1.079 31.3264 0 32.8839 0H50.0627C50.8111 0.00103325 51.5285 0.254873 52.0573 0.705786C52.5861 1.1567 52.8831 1.76783 52.8831 2.405V17.0261C52.8831 17.6636 52.5862 18.2752 52.0576 18.7267C51.5289 19.1782 50.8116 19.4329 50.0627 19.435ZM32.8839 1.1518C32.4938 1.15214 32.1198 1.28433 31.8441 1.51931C31.5683 1.7543 31.4134 2.07286 31.4134 2.405V17.0261C31.4134 17.719 32.0731 18.2832 32.8839 18.2832H50.0627C50.8567 18.2832 51.5286 17.7073 51.5286 17.0261V2.405C51.529 2.24077 51.4914 2.07808 51.418 1.92622C51.3445 1.77436 51.2366 1.6363 51.1005 1.51993C50.9644 1.40356 50.8027 1.31115 50.6246 1.24799C50.4465 1.18483 50.2556 1.15214 50.0627 1.1518H32.8839ZM19.9991 44.4145H2.82495C1.26741 44.4145 0 43.3355 0 42.0095V27.3845C0 26.0572 1.26741 24.9782 2.82495 24.9782H19.9991C21.5567 24.9782 22.8241 26.0572 22.8241 27.3845V42.0082C22.8241 43.3342 21.5567 44.4145 19.9991 44.4145ZM2.82495 26.1313C2.43493 26.132 2.06114 26.2643 1.7855 26.4992C1.50986 26.7341 1.35485 27.0525 1.35445 27.3845V42.0082C1.35445 42.6998 2.01411 43.2614 2.82495 43.2614H19.9991C20.3893 43.2611 20.7633 43.1289 21.039 42.8939C21.3147 42.6589 21.4696 42.3403 21.4696 42.0082V27.3845C21.4696 27.0524 21.3147 26.7338 21.039 26.4988C20.7633 26.2638 20.3893 26.1316 19.9991 26.1313H2.82495ZM50.0627 44.4145H32.8839C31.3264 44.4145 30.0605 43.3355 30.0605 42.0095V27.3845C30.0605 26.0572 31.3264 24.9782 32.8839 24.9782H50.0627C51.6172 24.9782 52.8831 26.0572 52.8831 27.3845V42.0082C52.8827 42.6454 52.5856 43.2564 52.0569 43.7075C51.5283 44.1585 50.8111 44.4128 50.0627 44.4145ZM32.8839 26.1313C32.4939 26.132 32.1201 26.2643 31.8445 26.4992C31.5689 26.7341 31.4138 27.0525 31.4134 27.3845V42.0082C31.4134 42.6998 32.0731 43.2614 32.8839 43.2614H50.0627C50.872 43.2614 51.5286 42.6998 51.5286 42.0082V27.3845C51.529 27.2203 51.4914 27.0576 51.418 26.9057C51.3445 26.7539 51.2366 26.6158 51.1005 26.4994C50.9644 26.3831 50.8027 26.2907 50.6246 26.2275C50.4465 26.1643 50.2556 26.1316 50.0627 26.1313H32.8839Z" fill="#5F6165"/>
</svg>
