<svg width="50" height="38" viewBox="0 0 50 38" fill="none" xmlns="http://www.w3.org/2000/svg">
<path d="M16.2701 36.75C17.3243 36.75 18.1788 36.0225 18.1788 35.125C18.1788 34.2275 17.3243 33.5 16.2701 33.5C15.2159 33.5 14.3613 34.2275 14.3613 35.125C14.3613 36.0225 15.2159 36.75 16.2701 36.75Z" stroke="#5F6165" stroke-width="1.625" stroke-linecap="round" stroke-linejoin="round"/>
<path d="M42.9918 36.75C44.0459 36.75 44.9005 36.0225 44.9005 35.125C44.9005 34.2275 44.0459 33.5 42.9918 33.5C41.9376 33.5 41.083 34.2275 41.083 35.125C41.083 36.0225 41.9376 36.75 42.9918 36.75Z" stroke="#5F6165" stroke-width="1.625" stroke-linecap="round" stroke-linejoin="round"/>
<path d="M1 1H8.635L14.3613 28.625H44.9013" stroke="#5F6165" stroke-width="1.625" stroke-linecap="round" stroke-linejoin="round"/>
<path d="M14.3605 22.125H44.1179C44.3386 22.1251 44.5525 22.0601 44.7233 21.9411C44.894 21.822 45.011 21.6562 45.0544 21.472L48.4901 6.84695C48.5178 6.72902 48.5145 6.60733 48.4802 6.49064C48.446 6.37396 48.3818 6.2652 48.2922 6.17221C48.2026 6.07922 48.0899 6.00433 47.9621 5.95293C47.8344 5.90153 47.6949 5.87492 47.5536 5.875H10.543" stroke="#5F6165" stroke-width="1.625" stroke-linecap="round" stroke-linejoin="round"/>
</svg>
