<svg width="31" height="26" viewBox="0 0 31 26" fill="none" xmlns="http://www.w3.org/2000/svg">
<path d="M10.7049 21.9375C11.2319 21.9375 11.6592 21.5737 11.6592 21.125C11.6592 20.6763 11.2319 20.3125 10.7049 20.3125C10.1778 20.3125 9.75049 20.6763 9.75049 21.125C9.75049 21.5737 10.1778 21.9375 10.7049 21.9375Z" stroke="#5F6165" stroke-width="1.625" stroke-linecap="round" stroke-linejoin="round"/>
<path d="M24.0657 21.9375C24.5928 21.9375 25.0201 21.5737 25.0201 21.125C25.0201 20.6763 24.5928 20.3125 24.0657 20.3125C23.5386 20.3125 23.1113 20.6763 23.1113 21.125C23.1113 21.5737 23.5386 21.9375 24.0657 21.9375Z" stroke="#5F6165" stroke-width="1.625" stroke-linecap="round" stroke-linejoin="round"/>
<path d="M3.06982 4.0625H6.88731L9.75043 17.875H25.0204" stroke="#5F6165" stroke-width="1.625" stroke-linecap="round" stroke-linejoin="round"/>
<path d="M9.75005 14.625H24.6287C24.7391 14.6251 24.8461 14.5926 24.9314 14.533C25.0168 14.4735 25.0753 14.3906 25.097 14.2985L26.8148 6.98598C26.8287 6.92701 26.827 6.86616 26.8099 6.80782C26.7928 6.74948 26.7607 6.6951 26.7159 6.6486C26.6711 6.60211 26.6147 6.56466 26.5508 6.53896C26.487 6.51327 26.4172 6.49996 26.3466 6.5H7.84131" stroke="#5F6165" stroke-width="1.625" stroke-linecap="round" stroke-linejoin="round"/>
</svg>
