<svg width="31" height="26" viewBox="0 0 31 26" fill="none" xmlns="http://www.w3.org/2000/svg">
<path d="M11.6616 7.58341C11.6769 5.22716 11.8003 3.951 12.7776 3.119C13.8961 2.16675 15.6954 2.16675 19.2941 2.16675H20.5666C24.1664 2.16675 25.9658 2.16675 27.0843 3.119C28.2015 4.07016 28.2015 5.60308 28.2015 8.66675V17.3334C28.2015 20.3971 28.2015 21.93 27.0843 22.8812C25.9645 23.8334 24.1664 23.8334 20.5666 23.8334H19.2941C15.6954 23.8334 13.8961 23.8334 12.7776 22.8812C11.8003 22.0492 11.6769 20.773 11.6616 18.4167" stroke="#5F6165" stroke-width="1.625" stroke-linecap="round"/>
<path d="M19.2939 13H2.75146M2.75146 13L7.2052 9.75M2.75146 13L7.2052 16.25" stroke="#5F6165" stroke-width="1.625" stroke-linecap="round" stroke-linejoin="round"/>
</svg>
