<svg width="53" height="46" viewBox="0 0 53 46" fill="none" xmlns="http://www.w3.org/2000/svg">
<path d="M18.8203 11.8333C18.8509 7.12083 19.0977 4.5685 21.0523 2.9045C23.2893 1 26.888 1 34.0852 1H36.6302C43.83 1 47.4287 1 49.6657 2.9045C51.9002 4.80683 51.9002 7.87267 51.9002 14V31.3333C51.9002 37.4607 51.9002 40.5265 49.6657 42.4288C47.4261 44.3333 43.83 44.3333 36.6302 44.3333H34.0852C26.888 44.3333 23.2893 44.3333 21.0523 42.4288C19.0977 40.7648 18.8509 38.2125 18.8203 33.5" stroke="#5F6165" stroke-width="1.625" stroke-linecap="round"/>
<path d="M34.085 22.667H1M1 22.667L9.9075 16.167M1 22.667L9.9075 29.167" stroke="#5F6165" stroke-width="1.625" stroke-linecap="round" stroke-linejoin="round"/>
</svg>
