<svg width="56" height="47" viewBox="0 0 56 47" fill="none" xmlns="http://www.w3.org/2000/svg">
<path d="M47.8655 0C46.2389 0.00203125 43.2586 0.99907 42.1742 2.03125H5.1572C1.3397 2.03125 1.3397 8.53125 5.1572 8.53125H42.1751C43.2593 9.56312 46.2392 10.5603 47.8656 10.5625C49.9083 10.56 51.7949 9.22492 52.8164 7.71875H48.1042L45.4797 5.28125L48.1042 2.84375H52.8187C51.7969 1.33707 49.909 0.00182812 47.8655 0ZM7.06595 3.65625C8.12018 3.65625 8.9747 4.38374 8.9747 5.28125C8.9747 6.17876 8.12018 6.90625 7.06595 6.90625C6.01185 6.90625 5.1572 6.17876 5.1572 5.28125C5.1572 4.38374 6.01185 3.65625 7.06595 3.65625ZM16.1051 15.5391C15.1507 15.5391 14.4552 15.9492 13.6993 16.4341C12.9435 16.919 12.1509 17.5456 11.3085 18.2287C9.66794 19.5588 7.83661 21.1019 6.10621 22.1103L11.5231 22.2255C12.8557 20.098 13.7035 18.1238 16.1051 17.3672H24.5752V22.5034L26.7225 22.5491V17.3672H29.4663C30.8382 17.3672 33.1583 18.432 35.4761 20.0106C36.7267 20.8624 37.989 21.8397 39.1883 22.8145L45.1067 22.9404L51.0393 17.048L49.4087 15.8583L42.3419 22.8772C40.6775 21.4731 38.7687 19.9119 36.8178 18.5831C34.3635 16.9119 31.9119 15.5391 29.4663 15.5391H16.1051ZM2.74097 23.8676C2.14508 23.8684 1.42464 24.1499 0.878383 24.6151C0.331288 25.0807 0 25.6953 0 26.2031C0 27.5234 0.868004 29.4795 1.98427 30.9999C2.5038 31.7078 3.07261 32.3259 3.58046 32.7583C3.58034 32.7398 3.57891 32.7217 3.57891 32.7031C3.57891 29.5167 6.63601 26.9141 10.3788 26.9141C14.1215 26.9141 17.1788 29.5167 17.1788 32.7031C17.1788 32.9438 17.1593 33.1809 17.1254 33.4141H39.8985C39.8636 33.1782 39.8458 32.9408 39.8452 32.7031C39.8452 29.5167 42.9023 26.9141 46.6451 26.9141C50.3878 26.9141 53.445 29.5167 53.445 32.7031C53.445 32.9438 53.4256 33.1809 53.3917 33.4141H54.5121L55.1128 28.8106C55.1001 27.5083 54.3641 26.5778 53.3707 25.9012C52.3686 25.2187 51.0591 24.8828 50.4626 24.8828H50.449L2.74097 23.8676ZM10.3788 28.7422C7.79653 28.7422 5.72625 30.5047 5.72625 32.7031C5.72625 34.9015 7.79653 36.6641 10.3788 36.6641C12.961 36.6641 15.0314 34.9015 15.0314 32.7031C15.0314 30.5047 12.961 28.7422 10.3788 28.7422ZM46.6451 28.7422C44.0628 28.7422 41.9925 30.5047 41.9925 32.7031C41.9925 34.9015 44.0628 36.6641 46.6451 36.6641C49.2273 36.6641 51.2977 34.9015 51.2977 32.7031C51.2977 30.5047 49.2273 28.7422 46.6451 28.7422ZM20.9963 35.2422V36.6641H34.1189V35.2422H20.9963ZM26.7225 38.4922V43.1641H28.3927V38.4922H26.7225ZM22.4949 44.9922L21.6598 46.4141H33.4553L32.6202 44.9922H22.4949Z" fill="#5F6165"/>
</svg>
