<svg width="31" height="26" viewBox="0 0 31 26" fill="none" xmlns="http://www.w3.org/2000/svg">
<path d="M25.6309 1.52344C24.8176 1.52445 23.3275 2.02297 22.7853 2.53906H4.27684C2.36809 2.53906 2.36809 5.78906 4.27684 5.78906H22.7858C23.3278 6.305 24.8178 6.80357 25.631 6.80469C26.6523 6.80342 27.5956 6.1359 28.1064 5.38281H25.7503L24.438 4.16406L25.7503 2.94531H28.1075C27.5966 2.19197 26.6527 1.52435 25.6309 1.52344ZM5.23121 3.35156C5.75832 3.35156 6.18558 3.71531 6.18558 4.16406C6.18558 4.61282 5.75832 4.97656 5.23121 4.97656C4.70416 4.97656 4.27684 4.61282 4.27684 4.16406C4.27684 3.71531 4.70416 3.35156 5.23121 3.35156ZM9.75076 9.29297C9.27357 9.29297 8.92582 9.49802 8.54789 9.7405C8.16996 9.98293 7.77366 10.2963 7.35248 10.6378C6.5322 11.3028 5.61654 12.0744 4.75134 12.5786L7.45979 12.6362C8.12606 11.5724 8.54998 10.5854 9.75076 10.207H13.9858V12.7751L15.0595 12.798V10.207H16.4314C17.1173 10.207 18.2774 10.7394 19.4363 11.5287C20.0616 11.9546 20.6927 12.4433 21.2923 12.9307L24.2516 12.9937L27.2178 10.0474L26.4025 9.45257L22.8691 12.962C22.0369 12.26 21.0826 11.4794 20.1071 10.815C18.8799 9.97938 17.6542 9.29297 16.4314 9.29297H9.75076ZM3.06872 13.4572C2.77078 13.4576 2.41056 13.5984 2.13743 13.831C1.86389 14.0638 1.69824 14.3711 1.69824 14.625C1.69824 15.2852 2.13224 16.2632 2.69037 17.0234C2.95014 17.3773 3.23454 17.6864 3.48847 17.9026C3.48841 17.8933 3.48769 17.8843 3.48769 17.875C3.48769 16.2818 5.01624 14.9805 6.88764 14.9805C8.75899 14.9805 10.2876 16.2818 10.2876 17.875C10.2876 17.9954 10.2779 18.1139 10.2609 18.2305H21.6474C21.63 18.1126 21.6211 17.9938 21.6208 17.875C21.6208 16.2818 23.1493 14.9805 25.0207 14.9805C26.8921 14.9805 28.4207 16.2818 28.4207 17.875C28.4207 17.9954 28.4109 18.1139 28.394 18.2305H28.9542L29.2546 15.9288C29.2482 15.2776 28.8802 14.8123 28.3835 14.474C27.8825 14.1328 27.2277 13.9648 26.9295 13.9648H26.9227L3.06872 13.4572ZM6.88764 15.8945C5.5965 15.8945 4.56136 16.7758 4.56136 17.875C4.56136 18.9742 5.5965 19.8555 6.88764 19.8555C8.17873 19.8555 9.21392 18.9742 9.21392 17.875C9.21392 16.7758 8.17873 15.8945 6.88764 15.8945ZM25.0207 15.8945C23.7296 15.8945 22.6944 16.7758 22.6944 17.875C22.6944 18.9742 23.7296 19.8555 25.0207 19.8555C26.3118 19.8555 27.347 18.9742 27.347 17.875C27.347 16.7758 26.3118 15.8945 25.0207 15.8945ZM12.1963 19.1445V19.8555H18.7576V19.1445H12.1963ZM15.0595 20.7695V23.1055H15.8945V20.7695H15.0595ZM12.9456 24.0195L12.5281 24.7305H18.4258L18.0083 24.0195H12.9456Z" fill="#5F6165"/>
</svg>
