<svg width="26" height="26" viewBox="0 0 26 26" fill="none" xmlns="http://www.w3.org/2000/svg">
<path d="M7.5 7.5L1 1M24.6229 17.3986L17.3986 24.6229C17.1374 24.8837 16.7834 25.0302 16.4143 25.0302C16.0452 25.0302 15.6912 24.8837 15.43 24.6229L3.34 12.5329C3.26796 12.464 3.21223 12.3799 3.17688 12.2867C3.14154 12.1935 3.12747 12.0936 3.13571 11.9943L4.23143 4.86286C4.2442 4.69964 4.31483 4.54635 4.43059 4.43059C4.54635 4.31483 4.69964 4.2442 4.86286 4.23143L11.9943 3.13571C12.0936 3.12747 12.1935 3.14154 12.2867 3.17688C12.3799 3.21223 12.464 3.26796 12.5329 3.34L24.6229 15.43C24.8837 15.6912 25.0302 16.0452 25.0302 16.4143C25.0302 16.7834 24.8837 17.1374 24.6229 17.3986Z" stroke="#5F6165" stroke-width="1.85714" stroke-linecap="round" stroke-linejoin="round"/>
</svg>
